<svg width="48" height="54" viewBox="0 0 48 54" fill="none" xmlns="http://www.w3.org/2000/svg">
<path d="M12.121 45.763C12.151 45.721 12.187 45.7 12.229 45.7H12.337C12.397 45.7 12.427 45.73 12.427 45.79V51.91C12.427 51.97 12.397 52 12.337 52H12.247C12.187 52 12.157 51.97 12.157 51.91V46.258C12.157 46.24 12.151 46.231 12.139 46.231C12.127 46.225 12.118 46.231 12.112 46.249L10.366 48.976C10.336 49.018 10.3 49.039 10.258 49.039H10.204C10.162 49.039 10.126 49.018 10.096 48.976L8.332 46.267C8.326 46.249 8.317 46.243 8.305 46.249C8.293 46.255 8.287 46.267 8.287 46.285V51.91C8.287 51.97 8.257 52 8.197 52H8.107C8.047 52 8.017 51.97 8.017 51.91V45.79C8.017 45.73 8.047 45.7 8.107 45.7H8.215C8.257 45.7 8.293 45.721 8.323 45.763L10.204 48.67C10.21 48.676 10.219 48.679 10.231 48.679C10.243 48.679 10.252 48.676 10.258 48.67L12.121 45.763ZM15.8274 51.82C16.1454 51.82 16.4214 51.748 16.6554 51.604C16.8894 51.454 17.0574 51.253 17.1594 51.001C17.1774 50.947 17.2134 50.926 17.2674 50.938L17.3394 50.956C17.3994 50.974 17.4204 51.01 17.4024 51.064C17.2884 51.37 17.0904 51.616 16.8084 51.802C16.5324 51.982 16.2024 52.072 15.8184 52.072C15.4104 52.072 15.0654 51.967 14.7834 51.757C14.5074 51.541 14.3214 51.256 14.2254 50.902C14.1894 50.764 14.1654 50.614 14.1534 50.452C14.1474 50.284 14.1444 50.044 14.1444 49.732C14.1444 49.45 14.1474 49.228 14.1534 49.066C14.1654 48.898 14.1864 48.748 14.2164 48.616C14.3004 48.256 14.4834 47.968 14.7654 47.752C15.0534 47.53 15.4044 47.419 15.8184 47.419C16.2504 47.419 16.6104 47.533 16.8984 47.761C17.1924 47.983 17.3754 48.283 17.4474 48.661C17.4714 48.775 17.4864 48.91 17.4924 49.066C17.4984 49.222 17.5014 49.435 17.5014 49.705C17.5014 49.771 17.4714 49.804 17.4114 49.804H14.4504C14.4264 49.804 14.4144 49.816 14.4144 49.84C14.4144 50.05 14.4174 50.239 14.4234 50.407C14.4294 50.569 14.4414 50.686 14.4594 50.758C14.5194 51.076 14.6694 51.334 14.9094 51.532C15.1554 51.724 15.4614 51.82 15.8274 51.82ZM15.8184 47.671C15.4584 47.671 15.1554 47.77 14.9094 47.968C14.6694 48.16 14.5194 48.412 14.4594 48.724C14.4294 48.856 14.4144 49.126 14.4144 49.534C14.4144 49.558 14.4264 49.57 14.4504 49.57H17.1954C17.2194 49.57 17.2314 49.558 17.2314 49.534C17.2314 49.126 17.2164 48.859 17.1864 48.733C17.1204 48.415 16.9644 48.16 16.7184 47.968C16.4784 47.77 16.1784 47.671 15.8184 47.671ZM20.5647 51.82C20.8827 51.82 21.1587 51.748 21.3927 51.604C21.6267 51.454 21.7947 51.253 21.8967 51.001C21.9147 50.947 21.9507 50.926 22.0047 50.938L22.0767 50.956C22.1367 50.974 22.1577 51.01 22.1397 51.064C22.0257 51.37 21.8277 51.616 21.5457 51.802C21.2697 51.982 20.9397 52.072 20.5557 52.072C20.1477 52.072 19.8027 51.967 19.5207 51.757C19.2447 51.541 19.0587 51.256 18.9627 50.902C18.9267 50.764 18.9027 50.614 18.8907 50.452C18.8847 50.284 18.8817 50.044 18.8817 49.732C18.8817 49.45 18.8847 49.228 18.8907 49.066C18.9027 48.898 18.9237 48.748 18.9537 48.616C19.0377 48.256 19.2207 47.968 19.5027 47.752C19.7907 47.53 20.1417 47.419 20.5557 47.419C20.9877 47.419 21.3477 47.533 21.6357 47.761C21.9297 47.983 22.1127 48.283 22.1847 48.661C22.2087 48.775 22.2237 48.91 22.2297 49.066C22.2357 49.222 22.2387 49.435 22.2387 49.705C22.2387 49.771 22.2087 49.804 22.1487 49.804H19.1877C19.1637 49.804 19.1517 49.816 19.1517 49.84C19.1517 50.05 19.1547 50.239 19.1607 50.407C19.1667 50.569 19.1787 50.686 19.1967 50.758C19.2567 51.076 19.4067 51.334 19.6467 51.532C19.8927 51.724 20.1987 51.82 20.5647 51.82ZM20.5557 47.671C20.1957 47.671 19.8927 47.77 19.6467 47.968C19.4067 48.16 19.2567 48.412 19.1967 48.724C19.1667 48.856 19.1517 49.126 19.1517 49.534C19.1517 49.558 19.1637 49.57 19.1877 49.57H21.9327C21.9567 49.57 21.9687 49.558 21.9687 49.534C21.9687 49.126 21.9537 48.859 21.9237 48.733C21.8577 48.415 21.7017 48.16 21.4557 47.968C21.2157 47.77 20.9157 47.671 20.5557 47.671ZM25.3658 51.748C25.4258 51.748 25.4558 51.778 25.4558 51.838V51.91C25.4558 51.97 25.4258 52 25.3658 52H25.1678C24.7718 52 24.4688 51.922 24.2588 51.766C24.0548 51.604 23.9528 51.31 23.9528 50.884V47.77C23.9528 47.746 23.9408 47.734 23.9168 47.734H23.3678C23.3078 47.734 23.2778 47.704 23.2778 47.644V47.581C23.2778 47.521 23.3078 47.491 23.3678 47.491H23.9168C23.9408 47.491 23.9528 47.479 23.9528 47.455V46.438C23.9528 46.378 23.9828 46.348 24.0428 46.348H24.1238C24.1838 46.348 24.2138 46.378 24.2138 46.438V47.455C24.2138 47.479 24.2258 47.491 24.2498 47.491H25.3478C25.4078 47.491 25.4378 47.521 25.4378 47.581V47.644C25.4378 47.704 25.4078 47.734 25.3478 47.734H24.2498C24.2258 47.734 24.2138 47.746 24.2138 47.77V50.857C24.2138 51.193 24.2918 51.427 24.4478 51.559C24.6038 51.685 24.8498 51.748 25.1858 51.748H25.3658ZM32.4642 52C32.4102 52 32.3742 51.976 32.3562 51.928L31.9422 50.659C31.9362 50.641 31.9242 50.632 31.9062 50.632H28.9542C28.9362 50.632 28.9242 50.641 28.9182 50.659L28.5042 51.928C28.4862 51.976 28.4502 52 28.3962 52H28.3062C28.2402 52 28.2162 51.967 28.2342 51.901L30.2502 45.772C30.2682 45.724 30.3042 45.7 30.3582 45.7H30.4842C30.5382 45.7 30.5742 45.724 30.5922 45.772L32.6172 51.901L32.6262 51.937C32.6262 51.979 32.5992 52 32.5452 52H32.4642ZM29.0082 50.344C29.0022 50.356 29.0022 50.368 29.0082 50.38C29.0202 50.386 29.0322 50.389 29.0442 50.389H31.8072C31.8192 50.389 31.8282 50.386 31.8342 50.38C31.8402 50.368 31.8402 50.356 31.8342 50.344L30.4482 46.123C30.4422 46.111 30.4332 46.105 30.4212 46.105C30.4092 46.105 30.4002 46.111 30.3942 46.123L29.0082 50.344ZM36.2743 45.682C36.7663 45.682 37.1593 45.835 37.4533 46.141C37.7533 46.441 37.9033 46.84 37.9033 47.338C37.9033 47.836 37.7533 48.235 37.4533 48.535C37.1533 48.835 36.7603 48.985 36.2743 48.985H34.2403C34.2163 48.985 34.2043 48.997 34.2043 49.021V51.91C34.2043 51.97 34.1743 52 34.1143 52H34.0243C33.9643 52 33.9343 51.97 33.9343 51.91V45.772C33.9343 45.712 33.9643 45.682 34.0243 45.682H36.2743ZM36.2743 48.733C36.6823 48.733 37.0093 48.607 37.2553 48.355C37.5073 48.097 37.6333 47.761 37.6333 47.347C37.6333 46.921 37.5073 46.579 37.2553 46.321C37.0093 46.063 36.6823 45.934 36.2743 45.934H34.2403C34.2163 45.934 34.2043 45.946 34.2043 45.97V48.697C34.2043 48.721 34.2163 48.733 34.2403 48.733H36.2743ZM39.3961 52C39.3361 52 39.3061 51.97 39.3061 51.91V45.79C39.3061 45.73 39.3361 45.7 39.3961 45.7H39.4861C39.5461 45.7 39.5761 45.73 39.5761 45.79V51.91C39.5761 51.97 39.5461 52 39.4861 52H39.3961Z" fill="black"/>
<path d="M12 26C14.7614 26 17 23.7614 17 21C17 18.2386 14.7614 16 12 16C9.23858 16 7 18.2386 7 21C7 23.7614 9.23858 26 12 26Z" fill="#FFA726"/>
<path d="M2 34.7C2 34.7 4.8 28.4 12 28.4C19.2 28.4 22 34.7 22 34.7V38H2V34.7Z" fill="#455A64"/>
<path d="M46 34.7C46 34.7 43.2 28.4 36 28.4C28.8 28.4 26 34.7 26 34.7V38H46V34.7Z" fill="#455A64"/>
<path d="M24 23C27.3137 23 30 20.3137 30 17C30 13.6863 27.3137 11 24 11C20.6863 11 18 13.6863 18 17C18 20.3137 20.6863 23 24 23Z" fill="#FFB74D"/>
<path d="M36 34.1C36 34.1 32.7 26.6 24 26.6C15.3 26.6 12 34.1 12 34.1V38H36V34.1Z" fill="#607D8B"/>
<path d="M36 26C38.7614 26 41 23.7614 41 21C41 18.2386 38.7614 16 36 16C33.2386 16 31 18.2386 31 21C31 23.7614 33.2386 26 36 26Z" fill="#FFA726"/>
<path d="M12 26C14.7614 26 17 23.7614 17 21C17 18.2386 14.7614 16 12 16C9.23858 16 7 18.2386 7 21C7 23.7614 9.23858 26 12 26Z" fill="#FFA726"/>
<path d="M36 26C38.7614 26 41 23.7614 41 21C41 18.2386 38.7614 16 36 16C33.2386 16 31 18.2386 31 21C31 23.7614 33.2386 26 36 26Z" fill="#FFA726"/>
</svg>
